<?xml version="1.0" standalone="no"?><!DOCTYPE svg PUBLIC "-//W3C//DTD SVG 1.1//EN" "http://www.w3.org/Graphics/SVG/1.1/DTD/svg11.dtd"><svg t="1499160685978" class="icon" style="" viewBox="0 0 1024 1024" version="1.1" xmlns="http://www.w3.org/2000/svg" p-id="1364" xmlns:xlink="http://www.w3.org/1999/xlink" width="200" height="200"><defs><style type="text/css"></style></defs><path d="M505.414794921875 567.1337890625c-24.56103515625 0-49.10229492187499 1.0085449218750002-73.08984374999997 2.946533203125-0.6328124999999998-0.059326171875-1.245849609375-0.19775390624999997-1.8786621093749996-0.19775390624999997a23.888671875 23.888671875 0 0 0 0 47.757568359375l3.223388671874999 0.39550781249999994c23.53271484375-1.9577636718750004 47.54003906249999-2.2543945312500004 71.74511718749999-2.2543945312500004 199.01953125 0 337.704345703125 63.87451171875 337.704345703125 121.16381835937501 0 57.30908203125001-138.70458984375 121.18359374999999-337.704345703125 121.18359374999999-199.039306640625 0-337.68457031250006-63.87451171875-337.68457031250006-121.18359374999999 0-31.086914062500004 38.87841796875-64.131591796875 106.31249999999999-87.5654296875v60.868652343749986a26.696777343750007 26.696777343750007 0 0 0 53.393554687500014 0V441.48095703125c22.7021484375-11.885009765624998 43.5849609375-21.812255859375 85.60766601562501-21.812255859375 44.09912109375001 0 64.86328125 10.95556640625 88.94970703125 23.61181640625 26.499023437500004 13.96142578125 56.55761718749999 29.781738281250007 113.86669921875 29.781738281250007 52.00927734375001 0 81.158203125-12.814453125 106.51025390624997-25.925537109375 8.879150390625-4.587890625 14.43603515625-13.724121093750002 14.43603515625-23.730468749999996V174.17700195312506a26.657226562500007 26.657226562500007 0 0 0-38.97729492187501-23.671142578125c-21.120117187500004 10.95556640625-41.864501953125 19.97314453125-81.96899414062499 19.97314453125-44.09912109375001 0-64.90283203125-10.95556640625-88.9892578125-23.6513671875C500.35229492187506 132.90576171875 470.333251953125 117.08544921874994 413.0439453125 117.08544921874994c-39.62988281249999 0-66.12890625 7.573974609374999-87.54565429687499 16.828857421875004a26.696777343750007 26.696777343750007 0 0 0-51.475341796874986 9.8876953125v455.82275390625C175.3437500000001 630.8896484375 119.0234375 680.4072265625 119.0234375 736.9648437500001c0 96.85986328125001 166.11328125 169.850830078125 386.37158203125 169.850830078125s386.37158203125-72.990966796875 386.37158203125-169.850830078125c0.039550781249999986-96.82031249999997-166.11328125-169.8310546875-386.35180664062494-169.8310546875z m-177.978515625-374.8623046875c22.682373046874996-11.865234374999998 43.565185546875-21.79248046875 85.568115234375-21.79248046875 44.09912109375001 0 64.883056640625 10.95556640625 88.9892578125 23.61181640625 26.479248046874993 13.96142578125 56.518066406249986 29.781738281250007 113.846923828125 29.781738281250007 28.219482421874993 0 49.7548828125-3.757324218749999 67.532958984375-9.314208984375v192.17724609375c-17.006835937499996 7.554199218749999-36.446044921875 12.952880859375-67.532958984375 12.952880859375-44.118896484375 0-64.90283203125-10.95556640625-88.9892578125-23.631591796875-26.518798828125-13.941650390624998-56.55761718749999-29.761962890624996-113.846923828125-29.761962890624996-38.40380859375001 0-64.50732421875 7.059814453125001-85.58789062499999 15.958740234374996V192.271484375z" fill="#dddddd" p-id="1365"></path></svg>