<?xml version="1.0" standalone="no"?><!DOCTYPE svg PUBLIC "-//W3C//DTD SVG 1.1//EN" "http://www.w3.org/Graphics/SVG/1.1/DTD/svg11.dtd"><svg t="1499238731864" class="icon" style="" viewBox="0 0 1024 1024" version="1.1" xmlns="http://www.w3.org/2000/svg" p-id="1979" xmlns:xlink="http://www.w3.org/1999/xlink" width="200" height="200"><defs><style type="text/css"></style></defs><path d="M890.39926625 322.54545499999995l-9.696969375-152.00000062499998c-0.8484853125-14.06060625-12.1212121875-25.333333125-26.1818184375-26.1818184375L699.4901759375 135.03030312500005c-14.909090625-0.48484874999999994-28.727272499999998 10.7878790625-29.575757812499997 26.1818184375-0.9696965625 15.393939375 10.7878790625 28.727272499999998 26.1818184375 29.575756875l91.7575753125 5.5757578125L631.0053275 353.2121215625c-53.69697-44.4848484375-122.1818184375-70.3030303125-193.93939406249999-70.3030303125-45.454544999999996 0-89.45454562500001 10.0606059375-130.7878790625 29.81818125C233.0659334375 347.7575759375 178.03563031250002 409.0909090625 151.00532749999996 485.5757571875c-27.0303028125 76.484848125-22.545454687499998 158.7878784375 12.3636365625 232.0000003125C213.55078156250005 822.4242425 321.06593375 890.1818178125001 437.42957 890.1818178125001c45.454544999999996 0 89.45454562500001-10.0606059375 130.787878125-29.696969062500003 73.09090875-35.030303437499995 128.2424240625-96.3636365625 155.2727278125-172.8484846875 27.0303028125-76.484848125 22.545454687499998-158.7878784375-12.3636365625-232.0000003125-10.90909125-22.7878790625-24.6060609375-43.8787875-40.3636359375-62.909090625000005l158.0606053125-158.06060625 5.8181821875 91.51515093750001c0.9696965625 14.7878784375 13.2121209375 26.1818184375 27.878788125 26.1818184375h1.818181875c15.393939375-1.0909087499999999 27.151515-14.4242428125 26.0606053125-29.81818125zM670.64169125 668.9696965625001c-21.93939375 62.303030625-67.030303125 112.3636359375-126.6666665625 140.96969718749997-33.696969375 16.1212125-69.5757571875 24.242424375-106.666666875 24.242424375-94.90909124999999 0-182.545455-55.2727275-223.51515187500002-140.72727281250002-28.3636359375-59.757575625-31.9999996875-126.9090909375-10.0606059375-189.3333328125 21.93939375-62.303030625 67.030303125-112.3636359375 126.6666665625-140.96969718749997 33.696969375-16.1212125 69.5757571875-24.242424375 106.666666875-24.242424375 94.90909124999999 0 182.66666625000002 55.2727275 223.51515187500002 140.72727281250002 28.484848125 59.757575625 32.121211875 126.9090909375 10.0606059375 189.3333328125z" fill="#4DC0D7" p-id="1980"></path></svg>