<?xml version="1.0" standalone="no"?><!DOCTYPE svg PUBLIC "-//W3C//DTD SVG 1.1//EN" "http://www.w3.org/Graphics/SVG/1.1/DTD/svg11.dtd"><svg t="1499159395705" class="icon" style="" viewBox="0 0 1025 1024" version="1.1" xmlns="http://www.w3.org/2000/svg" p-id="1015" xmlns:xlink="http://www.w3.org/1999/xlink" width="200.1953125" height="200"><defs><style type="text/css"></style></defs><path d="M494.86132786750795 155.38378931999205L393.34765625 155.38378931999205c-23.730468749999996 0-42.18749974250793 19.116211194992065-42.18749974250793 42.84667994499207l0 640.0634768199922c0 23.730468749999996 19.116211194992065 42.84667994499207 42.18749974250793 42.84667994499207l101.51367161750794 0c23.071289319992065 0 42.18749974250793-19.116211194992065 42.18749974250793-42.84667994499207L537.048828382492 198.23046849250795C537.7080078124999 174.49999974250795 518.591796617508 155.38378931999205 494.86132786750795 155.38378931999205zM485.63281275749205 811.2675778675078c0 10.546874742507935-8.569335680007935 18.457030992507935-18.457030992507935 18.457030992507935-13.183594007492065 0-30.32226536750793 0-46.14257786750793 0-10.546874742507935 0-18.457030992507935-8.569335680007935-18.457030992507935-18.457030992507935l0 0 0-585.3515625c0-10.546874742507935 8.569335680007935-18.457030992507935 18.457030992507935-18.457030992507935 13.183594007492065 0 30.32226536750793 0 46.14257786750793 0 10.546874742507935 0 18.457030992507935 8.569335680007935 18.457030992507935 18.457030992507935L485.63281275749205 811.2675778675078z" fill="#dddddd" p-id="1016"></path><path d="M906.189452867508 801.3798825550078L740.076171617508 182.41015599250795c-2.636718492507935-11.206054944992065-9.8876953125-20.434570055007935-19.775390625-25.708007812500004-9.8876953125-5.932617187499999-21.093750257492065-7.250976819992065-32.29980443000793-4.614257555007935l-98.21777369499205 26.367187242507935c-23.071289319992065 5.932617187499999-36.25488255500793 29.003906507492065-29.6630859375 52.07519505500793l165.45410181999208 618.310547132492c5.273437757492065 19.116211194992065 22.412109117507935 31.640625 40.86914088249207 31.640625 3.2958986949920654 0 7.250976819992065-0.6591794300079347 10.546874742507935-1.3183596324920654l98.21777369499205-26.367187242507935C898.938476819992 847.522461194992 912.1220700550078 824.451171875 906.189452867508 801.3798825550078zM835.6572268199922 810.6083984375c-13.183594007492065 3.2958986949920654-29.003906507492065 7.91015625-44.824219007492076 11.865234374999998-9.8876953125 2.636718492507935-20.434570055007935-3.2958986949920654-23.071289319992065-13.183594007492065-9.228515882492065-36.25488255500793-30.32226536750793-114.03808619499205-75.146484375-282.7880859375L617.468749742508 243.71386693000795c-2.636718492507935-9.8876953125 3.2958986949920654-19.775390625 13.183594007492065-23.071289319992065 13.183594007492065-3.2958986949920654 29.003906507492065-7.91015625 44.824219007492076-11.865234374999998 9.8876953125-2.636718492507935 20.434570055007935 3.2958986949920654 23.071289319992065 13.183594007492065 9.228515882492065 36.25488255500793 30.32226536750793 114.03808619499205 75.146484375 282.7880859375l75.80566380500794 282.7880859375C851.4775393199922 798.083984632492 845.544922132492 807.971679944992 835.6572268199922 810.6083984375z" fill="#dddddd" p-id="1017"></path><path d="M732.8274365234374 516.0362893199921l0 0 0 0Z" fill="#dddddd" p-id="1018"></path><path d="M262.830078125 155.38378931999205L160.65722630500795 155.38378931999205c-23.730468749999996 0-42.18749974250793 19.116211194992065-42.18749974250793 42.84667994499207l0 640.0634768199922c0 23.730468749999996 19.116211194992065 42.84667994499207 42.18749974250793 42.84667994499207l101.51367161750794 0c23.071289319992065 0 42.18749974250793-19.116211194992065 42.18749974250793-42.84667994499207L304.3583984375 198.23046849250795C305.01757786750795 174.49999974250795 285.90136744499205 155.38378931999205 262.830078125 155.38378931999205zM253.60156224250795 811.2675778675078c0 10.546874742507935-8.569335680007935 18.457030992507935-18.457030992507935 18.457030992507935-13.183594007492065 0-30.32226536750793 0-46.14257786750793 0-10.546874742507935 0-18.457030992507935-8.569335680007935-18.457030992507935-18.457030992507935l0 0 0-585.3515625c0-10.546874742507935 8.569335680007935-18.457030992507935 18.457030992507935-18.457030992507935 13.183594007492065 0 30.32226536750793 0 46.14257786750793 0 10.546874742507935 0 18.457030992507935 8.569335680007935 18.457030992507935 18.457030992507935L253.60156224250795 811.2675778675078z" fill="#dddddd" p-id="1019"></path></svg>