<?xml version="1.0" standalone="no"?><!DOCTYPE svg PUBLIC "-//W3C//DTD SVG 1.1//EN" "http://www.w3.org/Graphics/SVG/1.1/DTD/svg11.dtd"><svg t="1500532031656" class="icon" style="" viewBox="0 0 1025 1024" version="1.1" xmlns="http://www.w3.org/2000/svg" p-id="2109" xmlns:xlink="http://www.w3.org/1999/xlink" width="200.1953125" height="200"><defs><style type="text/css"></style></defs><path d="M949.776968 246.351036a513.981673 513.981673 0 0 0-51.682972-70.602147C804.231086 68.062826 666.071115 0.001022 511.997445 0.001022c-282.768431 0-511.997444 229.227991-511.997444 511.998467 0 282.769453 229.227991 511.998467 511.997444 511.998466 282.771497 0 512.000511-229.227991 512.000511-511.998466 0-97.268096-27.12597-188.201176-74.220988-265.648453z" fill="#ff5641" p-id="2110"></path><path d="M641.992536 571.526349l-0.047025 0.048047-61.036755-59.763005 0.047025-0.048047z" fill="" p-id="2111"></path><path d="M706.724801 776.488686c8.922384 8.919317 21.251999 14.444694 34.867631 14.444694 27.236375 0 49.318458-22.07595 49.318459-49.312325 0-13.621766-5.523332-25.949336-14.444694-34.873765L711.351601 641.632695l-69.742417 69.742418 65.115617 65.113573zM776.466197 316.220216c8.921362-8.924429 14.444694-21.25711 14.444694-34.873765 0-27.230242-22.083105-49.312325-49.318459-49.312325-13.619721 0-25.946269 5.516176-34.867631 14.444694L581.252239 371.95036l69.742418 69.742418 125.47154-125.472562zM581.204193 511.483242l0.047024-0.047025-69.742417-69.741395-0.047025 0.047025-195.263026-195.263027c-8.924429-8.927496-21.25711-14.444694-34.873765-14.444694-27.237398 0-49.312325 22.082083-49.312324 49.312325 0 13.616654 5.513109 25.949336 14.440605 34.873765l195.263026 195.263026L246.453265 706.746268c-8.927496 8.924429-14.440605 21.251999-14.440605 34.873765 0 27.239442 22.07595 49.312325 49.312324 49.312324 13.616654 0 25.949336-5.525377 34.873765-14.444694l195.263026-195.263026 60.403969 60.403969 69.74344-69.741395-60.404991-60.403969z" fill="#FFFFFF" p-id="2112"></path><path d="M641.610206 711.382269l-69.74344-69.744463 69.741396-69.740373 69.743439 69.74344z" fill="#FFFFFF" p-id="2113"></path></svg>