<?xml version="1.0" standalone="no"?><!DOCTYPE svg PUBLIC "-//W3C//DTD SVG 1.1//EN" "http://www.w3.org/Graphics/SVG/1.1/DTD/svg11.dtd"><svg t="1499239056637" class="icon" style="" viewBox="0 0 1025 1024" version="1.1" xmlns="http://www.w3.org/2000/svg" p-id="1864" xmlns:xlink="http://www.w3.org/1999/xlink" width="200.1953125" height="200"><defs><style type="text/css"></style></defs><path d="M792.6501796096563 658.6639801055194c-110.88269005715848 110.88269005715848-284.5989048421383 118.27486939430239-406.5698642671108 18.480447980761525l-44.353076022863384 44.353076022863384 107.18660075068473 107.18660075068473c11.088269367814064 11.088269367814064 11.088269367814064 29.568717348575596 0 44.353076022863384-11.088269367814064 14.784358674287798-29.568717348575596 11.088269367814064-44.353076022863384 0l-107.18660075068473-107.18660075068473-59.13743469715119 66.52961403429508c-11.088269367814064 11.088269367814064-29.568717348575596 11.088269367814064-44.353076022863384 0-11.088269367814064-11.088269367814064-11.088269367814064-29.568717348575596 0-44.353076022863384l62.833524727821356-62.833524003624916-107.18660075068473-107.18660075068473c-11.088269367814064-11.088269367814064-11.088269367814064-29.568717348575596 0-44.353076022863384 11.088269367814064-11.088269367814064 29.568717348575596-11.088269367814064 44.353076022863384 0l107.18660075068473 107.18660075068473 44.353076022863384-44.353076022863384c-96.09833138287067-118.27486939430239-92.40224207639694-295.6871734857559 18.480447980761525-406.5698642671108 118.27486939430239-118.27486939430239 310.4715321600437-118.27486939430239 428.7464022785425 0 118.27486939430239 121.97095942497255 118.27486939430239 310.4715321600437 0 428.7464022785425zM408.25685335397714 274.2706538498402c-92.40224207639694 92.40224207639694-92.40224207639694 247.63800815641878 0 343.73633953928953 92.40224207639694 92.40224207639694 247.63800815641878 92.40224207639694 343.73633953928953 0 92.40224207639694-92.40224207639694 92.40224207639694-247.63800815641878 0-343.73633953928953-96.09833138287067-92.40224207639694-247.63800815641878-92.40224207639694-343.73633953928953 0z" fill="#db90c5" p-id="1865"></path></svg>