<?xml version="1.0" standalone="no"?><!DOCTYPE svg PUBLIC "-//W3C//DTD SVG 1.1//EN" "http://www.w3.org/Graphics/SVG/1.1/DTD/svg11.dtd"><svg t="1499159672488" class="icon" style="" viewBox="0 0 1025 1024" version="1.1" xmlns="http://www.w3.org/2000/svg" p-id="1131" xmlns:xlink="http://www.w3.org/1999/xlink" width="200.1953125" height="200"><defs><style type="text/css"></style></defs><path d="M656.6416015625 512q0 13.05703125-9.54140625 22.6001953125l-273.2150390625 273.21328125q-9.5431640625 9.54140625-22.6001953125 9.54140625t-22.6001953125-9.54140625-9.5431640625-22.6001953125l0-144.643359375-225 0q-13.05703125 0-22.6001953125-9.54140625t-9.54140625-22.6001953125l0-192.856640625q0-13.05703125 9.54140625-22.6001953125t22.6001953125-9.5431640625l225 0 0-144.64160156249997q0-13.05703125 9.54140625-22.6001953125t22.6001953125-9.54140625 22.6001953125 9.54140625l273.21328125 273.21328125q9.54140625 9.54140625 9.54140625 22.6001953125zM833.4265625 335.21503906249995l0 353.5716796875q0 59.765625-42.438867187499994 102.2044921875t-102.2044921875 42.438867187499994l-160.71328125000002 0q-6.528515625 0-11.29921875-4.770703125t-4.770703125-11.29921875q0-2.0091796875-0.502734375-10.044140625t-0.2513671875-13.31015625 1.5064453125000001-11.801953125 5.0220703125-9.79453125 10.2955078125-3.2642578125l160.71328125000002 0q33.147070312500006 0 56.752734375-23.60390625t23.60390625-56.752734375l0-353.5716796875q0-33.147070312500006-23.60390625-56.7509765625t-56.752734375-23.60390625l-156.6966796875 0t-5.776171875-0.5009765624999999-5.776171875-1.5064453125000001-4.018359375-2.7632812500000004-3.515625-4.5210937499999995-1.0037109375-6.7798828125q0-2.0091796875-0.502734375-10.0458984375t-0.2513671875-13.31015625 1.5064453125000001-11.8037109375 5.0220703125-9.79453125 10.2955078125-3.2642578125l160.71328125000002 0q59.765625 0 102.2044921875 42.438867187499994t42.438867187499994 102.2044921875z" fill="#dddddd" p-id="1132"></path></svg>