<?xml version="1.0" standalone="no"?><!DOCTYPE svg PUBLIC "-//W3C//DTD SVG 1.1//EN" "http://www.w3.org/Graphics/SVG/1.1/DTD/svg11.dtd"><svg t="1499160058088" class="icon" style="" viewBox="0 0 1024 1024" version="1.1" xmlns="http://www.w3.org/2000/svg" p-id="1218" xmlns:xlink="http://www.w3.org/1999/xlink" width="200" height="200"><defs><style type="text/css"></style></defs><path d="M914.5625 549.125l-173.15625-0.28125c-9.375 2.53125-18.9375-3-21.46875-12.375l-26.15625-83.0625-81.75 384s-1.6875 20.25-12.5625 20.25c-10.96875 0-29.4375 0.28125-29.4375 0.28125-9 2.4375-18.28125-2.90625-20.71875-12L447.78125 345.21875 370.8125 707c-2.4375 9.09375-13.03125 16.6875-22.3125 14.25l-27.1875 0.375c-9.5625 2.53125-19.3125-3.09375-21.9375-12.375l-51.28125-160.03125H109.53125c-9.65625 0-17.53125-7.875-17.53125-17.53125v-34.96875c0-9.65625 7.875-17.53125 17.53125-17.53125l172.3125-0.5625c10.5-0.375 19.3125 0.84375 21.9375 10.21875l26.71875 83.25 75.09375-392.71875s3.75-11.90625 15.75-11.90625 37.3125-0.46875 37.3125-0.46875c9-2.4375 18.375 2.90625 20.71875 12l100.59375 496.96875L654.21875 318.875c2.4375-9 9.5625-16.59375 18.5625-14.15625l29.90625-0.375c9.375-2.53125 18.9375 3 21.46875 12.375l51.09375 162.375h139.3125c9.65625 0 17.53125 7.875 17.53125 17.53125v34.96875c-0.09375 9.75-7.875 17.53125-17.53125 17.53125z" fill="#dddddd" p-id="1219"></path></svg>