<?xml version="1.0" standalone="no"?><!DOCTYPE svg PUBLIC "-//W3C//DTD SVG 1.1//EN" "http://www.w3.org/Graphics/SVG/1.1/DTD/svg11.dtd"><svg t="1499160939772" class="icon" style="" viewBox="0 0 1024 1024" version="1.1" xmlns="http://www.w3.org/2000/svg" p-id="1422" xmlns:xlink="http://www.w3.org/1999/xlink" width="200" height="200"><defs><style type="text/css"></style></defs><path d="M305.2896875 523.8125h414.5259375v91.56796875H305.2896875V523.8125z m-0.5737500000000001-184.663125h414.5259375v91.56796875H304.7159375V339.14937499999996z m68.88375-184.17796875c-125.11125 1.3499999999999999-227.11640625 97.53328125000002-229.28484375000002 205.7484375h-0.7214062499999999v437.49281250000007h312.946875l33.657187500000006 58.2440625c9.669375 16.756874999999997 33.93140625 16.756874999999997 43.6640625 0l33.64874999999999-58.2440625h80.33765624999998l0.05484375-0.09703125c124.29281250000001-2.21484375 230.14546875-91.17984374999999 232.26328125-198.81703125h0.24046875V154.97140624999997H373.5996875000001z m275.93578125 553.1203125h-95.65593750000001l-25.806093750000002 44.67234375c-7.11703125 12.41578125-24.975 12.41578125-32.146875 0l-25.806093750000002-44.67234375h-234.4359375v-346.021875h0.6749999999999999c1.3415625-66.436875 60.357656250000005-114.96093750000001 137.23593749999998-115.24781249999998v0.09703125h414.6229687499999v352.37953124999996h0.1940625c-2.1220312499999996 64.69875-64.02796875 107.25328125-138.87703125000002 108.79312499999999z" fill="#dddddd" p-id="1423"></path></svg>