<?xml version="1.0" standalone="no"?><!DOCTYPE svg PUBLIC "-//W3C//DTD SVG 1.1//EN" "http://www.w3.org/Graphics/SVG/1.1/DTD/svg11.dtd"><svg t="1499161385988" class="icon" style="" viewBox="0 0 1024 1024" version="1.1" xmlns="http://www.w3.org/2000/svg" p-id="1568" xmlns:xlink="http://www.w3.org/1999/xlink" width="200" height="200"><defs><style type="text/css"></style></defs><path d="M512 907.5078125c-218.419189453125 0-395.5078125-177.08862304687497-395.5078125-395.5078125s177.08862304687497-395.5078125 395.5078125-395.5078125c218.419189453125 0 395.5078125 177.08862304687497 395.5078125 395.5078125S730.419189453125 907.5078125 512 907.5078125zM512 191.6881103515625c-176.890869140625 0-320.3118896484375 143.37158203125-320.3118896484375 320.3118896484375s143.37158203125 320.3118896484375 320.3118896484375 320.3118896484375 320.3118896484375-143.37158203125 320.3118896484375-320.3118896484375S688.890869140625 191.6881103515625 512 191.6881103515625zM574.786865234375 386.77233886718744c6.5753173828125 20.56640625-4.894409179687501 42.51708984375-20.4180908203125 61.452026367187514-66.148681640625 51.9598388671875-98.28369140625 107.13317871093749-96.30615234374999 165.37170410156253l52.55310058593749 0c0-33.0743408203125 11.66748046875-63.775634765625 35.00244140624999-92.1038818359375 71.93298339843751-53.5418701171875 98.18481445312499-107.083740234375 78.804931640625-160.675048828125C607.1690673828125 324.33154296875 562.5755615234375 287.54931640625 512 292.29541015625 488.6156005859375 293.87744140625006 462.858154296875 301.73815917968744 455.0963134765625 306.4842529296875c-50.62499999999999 14.139404296874998-76.8768310546875 59.37561035156251-74.94873046875 117.66357421874997l57.39807128906249-8.997802734375C435.6175537109375 367.8868408203125 525.3483886718749 300.25500488281256 574.786865234375 386.77233886718744zM528.0675048828125 731.7045898437501L446.345703125 731.7045898437501l0-68.52172851562499 81.7218017578125 0L528.0675048828125 731.7045898437501z" fill="#dddddd" p-id="1569"></path></svg>