<?xml version="1.0" standalone="no"?><!DOCTYPE svg PUBLIC "-//W3C//DTD SVG 1.1//EN" "http://www.w3.org/Graphics/SVG/1.1/DTD/svg11.dtd"><svg t="1499161171159" class="icon" style="" viewBox="0 0 1024 1024" version="1.1" xmlns="http://www.w3.org/2000/svg" p-id="1510" xmlns:xlink="http://www.w3.org/1999/xlink" width="200" height="200"><defs><style type="text/css"></style></defs><path d="M802.3471387207506 537.0542534828187c-2.7056637793779372 169.22811311781408-140.5181384861469 305.6340274393558-310.39098630845547 305.6340274393558-171.56398047208782 0-310.6444340586662-139.07971200942993-310.6444340586662-310.6444340586662 0-170.8429147392511 137.93845736682417-309.37423189580437 308.5093972384929-310.53623693883424L489.82111631631847 181.42436203956606C297.1142745435238 182.5863670825958 141.22921132147314 339.06280838847164 141.22921132147314 532.0438475877046c0 193.7028457850218 157.02631786465645 350.72768194377426 350.72768194377426 350.72768194377426s350.72768194377426-157.02483615875244 350.72768194377426-350.72768194377426c0 1.691873502731323-0.228992360830307 3.3244613885879515-0.253447750210762 5.010405895113946L802.3471387207506 537.0542534828187z" fill="#dddddd" p-id="1511"></path><path d="M532.0431060105562 141.2284704685211c-0.7203248798847198 0-1.4154527932405472 0.10300970077514648-2.134295243024826 0.10745554268360141L529.9088114917279 496.9665583074093l352.6085294365883 0c0.024455389380455016-1.6859452307224272 0.253447750210762-3.3185323923826227 0.253447750210762-5.010405895113946C882.770788678527 298.25478833317754 725.744470089674 141.2284704685211 532.0431060105562 141.2284704685211z" fill="#dddddd" p-id="1512"></path></svg>