<?xml version="1.0" standalone="no"?><!DOCTYPE svg PUBLIC "-//W3C//DTD SVG 1.1//EN" "http://www.w3.org/Graphics/SVG/1.1/DTD/svg11.dtd"><svg t="1499161133846" class="icon" style="" viewBox="0 0 1024 1024" version="1.1" xmlns="http://www.w3.org/2000/svg" p-id="1509" xmlns:xlink="http://www.w3.org/1999/xlink" width="200" height="200"><defs><style type="text/css"></style></defs><path d="M882.78857421875 882.6835534244775C828.5638904243707 882.8961398392917 597.3024729818105 882.4116813927889 536.4766134053469 882.4116813927889 292.3414601176977 882.4116813927889 141.21142578125 715.1860880106688 141.21142578125 510.9637502193451 141.21142578125 306.7388712227344 307.10983794927597 141.21142578125 511.75480736494063 141.21142578125 716.4048562943935 141.21142578125 882.3032691866159 306.7388712227344 882.3032691866159 510.9637502193451 882.3032691866159 580.6784171044827 856.4677156567573 662.0404257625341 817.6686454772948 723.8157235205172 760.5516051322221 824.3934792488815 879.452414160967 806.983445739746 882.78857421875 882.6835534244775L882.78857421875 882.6835534244775 882.78857421875 882.6835534244775ZM352.95304083228115 458.7158619791269C323.73304868936543 458.7158619791269 300.01911913752554 482.431485426426 300.01911913752554 511.6497836738825 300.01911913752554 540.9222873002292 323.73304868936543 564.5845512300729 352.95304083228115 564.5845512300729 382.17218638956547 564.5845512300729 405.8869625270367 540.9222873002292 405.8869625270367 511.6497836738825 405.8869625270367 482.431485426426 382.17218566536906 458.7158619791269 352.95304083228115 458.7158619791269L352.95304083228115 458.7158619791269 352.95304083228115 458.7158619791269ZM511.755653950572 458.7158619791269C482.53650622069836 458.7158619791269 458.8217308074236 482.431485426426 458.8217308074236 511.6497836738825 458.8217308074236 540.9222873002292 482.5373557031154 564.5845512300729 511.755653950572 564.5845512300729 540.9798811942338 564.5845512300729 564.6946551591157 540.9222873002292 564.6946551591157 511.6497836738825 564.6946551591157 482.431485426426 540.9790317118169 458.7158619791269 511.755653950572 458.7158619791269L511.755653950572 458.7158619791269 511.755653950572 458.7158619791269ZM670.5624985486269 458.7158619791269C641.3425085783006 458.7158619791269 617.6285768538714 482.431485426426 617.6285768538714 511.6497836738825 617.6285768538714 540.9222873002292 641.3433544397353 564.5845512300729 670.5624985486269 564.5845512300729 699.7824921399356 564.5845512300729 723.496420967579 540.9222873002292 723.496420967579 511.6497836738825 723.496420967579 482.431485426426 699.7824921399356 458.7158619791269 670.5624985486269 458.7158619791269L670.5624985486269 458.7158619791269 670.5624985486269 458.7158619791269Z" fill="#dddddd" p-id="1510"></path></svg>