<?xml version="1.0" standalone="no"?><!DOCTYPE svg PUBLIC "-//W3C//DTD SVG 1.1//EN" "http://www.w3.org/Graphics/SVG/1.1/DTD/svg11.dtd"><svg t="1508920157605" class="icon" style="" viewBox="0 0 1024 1024" version="1.1" xmlns="http://www.w3.org/2000/svg" p-id="3560" xmlns:xlink="http://www.w3.org/1999/xlink" width="300" height="300"><defs><style type="text/css"></style></defs><path d="M552.291147 614.478999l1.133823 25.191752-14.932084 24.579815 45.669132 199.218274-64.440661 31.30396-64.441685-31.30396 45.602617-199.218274-14.867616-24.579815 1.136893-25.191752C515.530918 612.95018 523.86984 612.95018 552.291147 614.478999L552.291147 614.478999 552.291147 614.478999zM725.443765 282.099936c12.18246-161.933089-10.651594-255.233032-204.762547-229.169423-65.8825 8.776897-137.418766-10.565636-178.239474 19.34151-51.322899 48.373731-54.967916 121.023354-41.038672 206.247364-3.079128 1.702782-6.200212 3.580548-9.256828 5.675256l-9.146311 6.199189-0.152473 10.958586c-0.460488 28.42233 3.078105 52.391231 10.717086 70.728878 6.964622 16.720823 17.202801 29.121248 30.933523 36.586267 16.32992 55.621808 39.795355 97.448426 69.134567 127.485533 31.959899 32.744775 70.445422 51.344389 113.952308 58.679447l3.929496 0.654916 3.885494-0.785899c48.15679-10.216689 86.662779-29.646204 117.401874-62.082964 28.378327-30.039153 49.595558-70.64292 65.224514-124.866892 13.1853-7.640004 23.096021-20.213367 29.777187-36.760229 7.333012-18.250666 10.740622-41.826618 10.259668-69.63701l-0.132006-10.958586-9.1678-6.199189C727.628524 283.409768 726.581682 282.754852 725.443765 282.099936L725.443765 282.099936 725.443765 282.099936zM253.683235 594.70156l-8.643867-0.045025-6.616698 5.677303c-46.474474 40.558741-73.740468 99.716073-89.588411 160.010297-15.280008 58.504462-19.863397 118.27373-20.738323 162.28306l-0.478907 23.400966 23.312962 0L873.361653 946.028161l20.476357 0 2.228761-20.519336c5.717212-53.003168-3.319605-120.239502-23.096021-181.798533-18.818601-58.809407-47.76384-113.38335-83.301218-146.957003l-6.943133-6.593162-9.43079 0.306992-110.892623 3.798513 0 45.711088 102.511745-3.535523c26.717502 28.55229 49.116651 72.910567 64.615647 121.284297 15.368012 47.938825 23.662933 99.19521 22.441105 142.417617L174.52743 900.143111c1.856277-37.852096 6.812149-83.564207 18.579147-128.272455 12.986779-49.683563 34.359552-97.883331 69.199035-131.415029l92.972485 0.786922 0-45.624107L253.683235 594.70156 253.683235 594.70156zM325.743434 321.305867c0.938372 13.796214 3.273557 25.41074 7.092535 34.447557 3.776 9.211802 8.973372 15.107069 15.565511 17.157775l11.243065 3.493567 3.054569 11.307533c14.473643 53.308113 35.278481 92.077092 61.341067 118.840642 24.275893 24.885783 53.504588 39.423895 86.664825 45.712111 37.700647-8.599865 67.650773-23.969924 91.26868-48.898687 25.016767-26.370601 43.661406-64.092737 57.631582-116.091018l2.880607-10.827603 10.651594-3.710508c6.418176-2.270716 11.527544-8.338922 15.283078-17.550725 3.579525-8.993838 5.850242-20.345374 6.810103-33.748638-6.199189 0-12.486382 0.217964-19.690458 1.091868l-2.837628-9.605775-6.112208 0.349971-3.491521-18.467607c-2.707668-14.408151-6.855128-27.767414-12.225439-40.036855-16.241916 6.855128-34.447557-5.762237-50.907437-15.237029l-8.292873 26.108634-13.406335-1.746784 1.747807-15.934924-14.103206 22.703071-12.618389-2.488681 12.356422-33.704636 0 0c-69.287039 61.515029-150.33903 57.586556-195.550745 23.225981-1.438769 3.493567-2.792603 7.028067-4.037966 10.69662-3.121084 12.487406-6.613628 28.727275-9.713222 41.083697l-0.871857 4.54041-0.283456-0.086981c-0.676405 2.533706-1.309832 4.715395-1.922792 6.637164C347.572602 316.809459 336.046081 319.77807 325.743434 321.305867L325.743434 321.305867 325.743434 321.305867zM325.743434 321.305867M670.08597 888.222617l-39.993876-23.008017 252.788353-439.736163 39.99183 23.008017L670.08597 888.222617z" fill="#dbdbdb" p-id="3561"></path></svg>