<?xml version="1.0" standalone="no"?><!DOCTYPE svg PUBLIC "-//W3C//DTD SVG 1.1//EN" "http://www.w3.org/Graphics/SVG/1.1/DTD/svg11.dtd"><svg t="1499160035837" class="icon" style="" viewBox="0 0 1024 1024" version="1.1" xmlns="http://www.w3.org/2000/svg" p-id="1218" xmlns:xlink="http://www.w3.org/1999/xlink" width="200" height="200"><defs><style type="text/css"></style></defs><path d="M512.1467127990722 90.125C279.50875381469723 90.125 90.91843069458008 278.68412579345704 90.91843069458008 511.3600279846192c0 232.57387765502932 188.59453939819335 421.2384005126953 421.22828210449217 421.2383996887207 232.6480773925781 0 421.2417730407715-188.664522857666 421.2417730407715-421.2383996887207C933.3884858398437 278.68412579345704 744.793947265625 90.125 512.1467127990722 90.125z m0 763.4726776428223c-189.0152847290039 0-342.25114141845705-153.20381561279297-342.25114059448237-342.2376496582031 0-189.054071685791 153.23585586547853-342.2831816711426 342.25114059448237-342.28318249511716 189.03299194335938 0 342.2688478088379 153.22911080932616 342.2688478088379 342.28318249511716 0 189.03299194335938-153.23585586547853 342.23765048217774-342.2688478088379 342.2376496582031z m171.13400244140627-381.7700661621094H551.6403423461913V274.383916015625c0-21.774236846923827-17.67723321533203-39.52145434570313-39.493629547119134-39.52145434570313-21.798689117431643 0-39.483511138916015 17.748060424804688-39.483511138916015 39.52145434570313V511.3600279846192c0 21.784355255126954 17.684822021484376 39.483511138916015 39.483511138916015 39.483511138916015h171.13400244140627c21.813022979736328 0 39.483511138916015-17.69831295776367 39.483511962890624-39.483511138916015 0.0033725280761718753-21.79531658935547-17.670488159179687-39.53241567993164-39.483511962890624-39.53241650390625z" fill="#dddddd" p-id="1219"></path></svg>