<?xml version="1.0" standalone="no"?><!DOCTYPE svg PUBLIC "-//W3C//DTD SVG 1.1//EN" "http://www.w3.org/Graphics/SVG/1.1/DTD/svg11.dtd"><svg t="1499651350992" class="icon" style="" viewBox="0 0 1024 1024" version="1.1" xmlns="http://www.w3.org/2000/svg" p-id="1783" xmlns:xlink="http://www.w3.org/1999/xlink" width="200" height="200"><defs><style type="text/css"></style></defs><path d="M511.96987021484375 245.75981064453129c-248.49701894531245 0-449.95143251953124 253.66581474609373-449.95143251953124 265.09076806640627 0 11.4771181640625 201.4544135742187 264.26422880859377 449.95143251953124 264.26422880859377 248.49611982421874 0 449.95143251953124-252.78711064453125 449.95143251953124-264.26422880859377C961.9213036132812 499.42652451171875 760.4659900390625 245.75981064453129 511.96987021484375 245.75981064453129L511.96987021484375 245.75981064453129zM511.96987021484375 649.3926473632812c-130.06441669921875 0-235.47025107421877-132.33807509765626-235.47025107421877-138.28304443359374 0-5.9971341796874995 105.40583525390623-138.7489280273437 235.47025107421877-138.7489280273437 130.01225185546875 0 235.47025107421877 132.75179384765624 235.47025107421877 138.7489280273437C747.4392221679688 517.0545731445313 641.981222949219 649.3926473632812 511.96987021484375 649.3926473632812L511.96987021484375 649.3926473632812zM511.96987021484375 426.9500641601563c-78.7829853515625 0-142.62709921875 80.4369638671875-142.62709921875 84.05521083984375 0 3.6182469726562507 63.8432138671875 83.79618662109374 142.62709921875 83.79618662109374 78.72992138671876 0 142.62530009765624-80.1770396484375 142.62530009765624-83.79618662109374C654.5951703124999 507.3870280273438 590.6997916015624 426.9500641601563 511.96987021484375 426.9500641601563L511.96987021484375 426.9500641601563zM511.96987021484375 557.480364453125c-27.65714853515625 0-50.04027246093749-20.88743818359375-50.04027246093749-46.630683984375004 0-25.74414580078125 22.38312392578125-46.5767208984375 50.04027246093749-46.5767208984375 27.656249414062497 0 50.041172460937496 20.832575097656246 50.041172460937496 46.5767208984375C562.0101435546876 536.5938253906249 539.6261196289062 557.480364453125 511.96987021484375 557.480364453125L511.96987021484375 557.480364453125zM511.96987021484375 557.480364453125" fill="#dddddd" p-id="1784"></path></svg>