<?xml version="1.0" standalone="no"?><!DOCTYPE svg PUBLIC "-//W3C//DTD SVG 1.1//EN" "http://www.w3.org/Graphics/SVG/1.1/DTD/svg11.dtd"><svg t="1508728171760" class="icon" style="" viewBox="0 0 1024 1024" version="1.1" xmlns="http://www.w3.org/2000/svg" p-id="8358" xmlns:xlink="http://www.w3.org/1999/xlink" width="200" height="200"><defs><style type="text/css"></style></defs><path d="M209.01888 245.53984c14.30016 22.98368 31.99488 41.28256 53.0688 54.85568 21.62688 13.93152 47.07328 23.08608 76.3392 27.44832a22.76864 22.76864 0 0 1 19.49184 22.54848h0.03072v638.15168a22.81984 22.81984 0 0 1-27.56096 22.31296c-31.68256-4.5568-61.63968-13.6704-88.81664-29.99808-27.9552-16.82432-52.54144-40.96512-72.48896-75.1872a22.9888 22.9888 0 0 1-3.05664-11.41248h-0.05632V256.12288a22.81472 22.81472 0 0 1 22.81984-22.81984c8.79104 0 16.41984 4.95616 20.22912 12.2368z m431.37536 387.48672l-0.01536 1.4336c0 71.41376 57.91744 129.34144 129.34656 129.34144 71.424 0 129.34144-57.92768 129.34144-129.34144v-0.82944c-26.38336-12.93824-48.41472-29.7728-64.21504-49.26976-40.25344 30.74048-98.79552 50.09408-163.97824 50.09408a323.51744 323.51744 0 0 1-30.47936-1.42848z m179.43552 11.20768c9.57952 0 17.36192 7.76704 17.36192 17.34656a17.3568 17.3568 0 0 1-34.72384 0 17.3568 17.3568 0 0 1 17.36192-17.34656z m-104.43776 0a17.34656 17.34656 0 1 1 0 34.69312 17.34656 17.34656 0 0 1 0-34.69312z m119.94624-166.89664l0.14336 0.0512c3.02592 1.26976 5.98528 2.61632 8.90368 4.04992l0.512 0.25088c0.88064 0.42496 1.7408 0.86528 2.61632 1.32096l0.45568 0.23552c1.83808 0.95232 3.67104 1.94048 5.45792 2.97472l0.2816 0.14848c0.88064 0.49664 1.74592 1.01888 2.6112 1.51552l0.45568 0.29184c0.8448 0.49664 1.664 1.00352 2.49344 1.5104l0.44032 0.27648c0.7168 0.45568 1.42848 0.91136 2.1504 1.36192l0.5376 0.3584c0.74752 0.49664 1.52064 0.98816 2.26304 1.51552l0.7168 0.48128 2.09408 1.4592 0.84992 0.60416c0.54784 0.39936 1.10592 0.78336 1.65376 1.19808l0.9472 0.70144c0.55296 0.42496 1.11616 0.83968 1.66912 1.2544l1.00352 0.78336c0.61952 0.48128 1.22368 0.96256 1.82784 1.44384l0.9216 0.74752c0.5376 0.44032 1.09056 0.87552 1.6128 1.32096l0.90624 0.768 1.4592 1.23904 0.92672 0.79872c0.58368 0.52736 1.1776 1.0496 1.77664 1.57184l0.88064 0.79872c0.54784 0.52224 1.11616 1.04448 1.664 1.57184l0.896 0.82432 0.62976 0.60416c31.7184 30.56128 51.48672 73.48224 51.48672 120.9856 0 5.54496-0.27648 11.05408-0.82432 16.4608l-0.03072-0.01024c0.03072 0.49664 0.04608 0.98816 0.03072 1.5104l-0.30208 229.1712c-66.69824-123.7504-253.12256-128.36352-334.71488-6.99392V626.944c0.01536-0.4352 0.04096-0.88064 0.07168-1.28 3.49696-89.64096 77.30688-161.26464 167.80288-161.26464 22.93248 0 44.79488 4.59776 64.72192 12.93824z m-254.54592 517.03808h176.50688l-62.19264-171.99104c-64.37888 30.81216-105.8048 98.62144-114.31424 171.99104z m205.35296 0h168.35584c-8.5248-73.35936-49.94048-141.184-114.26304-171.96032l-54.0928 171.96032zM358.51264 308.81792l415.26784-178.21184a10.07616 10.07616 0 0 0 5.30944-13.21472 10.05568 10.05568 0 0 0-13.184-5.31456L350.62272 290.304a10.06592 10.06592 0 0 0 7.88992 18.51392z m-53.03296-22.6048l415.2576-178.22208a10.07104 10.07104 0 0 0 5.33504-13.19936 10.07104 10.07104 0 0 0-13.20448-5.31456L297.6 267.68896a10.07616 10.07616 0 0 0-5.30944 13.21472 10.05056 10.05056 0 0 0 13.18912 5.30944z m-37.39136-28.68736l415.27808-178.2272a10.06592 10.06592 0 0 0-7.8848-18.51392L260.21376 239.0016a10.08128 10.08128 0 0 0-5.30944 13.21472 10.05056 10.05056 0 0 0 13.184 5.30944zM384.9728 985.2672V352.05632h0.04096a22.74816 22.74816 0 0 1 13.85984-20.93568l449.39264-192.60928a22.82496 22.82496 0 0 1 33.26976 20.29056v296.3712l-0.57856-0.36864a125.52704 125.52704 0 0 0-3.072-1.85856l-0.64512-0.384c-1.04448-0.63488-2.11968-1.2544-3.16416-1.85856l-0.44032-0.24576a180.6592 180.6592 0 0 0-6.72768-3.65056l-0.45568-0.24576c-1.1008-0.57856-2.23744-1.1264-3.33312-1.69472l-0.7424-0.34304a191.7696 191.7696 0 0 0-10.97216-4.98688l-0.2048-0.09728a208.57856 208.57856 0 0 0-80.58368-16.11776c-111.94368 0-204.11904 88.35072-208.82944 200.09984-0.08192 1.24416-0.08192 1.0752-0.10752 2.64704v0.22016l-0.01536 282.70592a281.79968 281.79968 0 0 0-14.24384 41.20064l-129.18272 55.36256a22.78912 22.78912 0 0 1-10.46016 2.5344 22.8352 22.8352 0 0 1-22.80448-22.82496zM239.31904 226.04288a17.08544 17.08544 0 0 1-13.37856-31.42656L676.87424 1.36192a17.08544 17.08544 0 0 1 22.39488 9.03168 17.0496 17.0496 0 0 1-9.02144 22.39488L239.31904 226.04288z" p-id="8359" fill="#0D6695"></path></svg>