<?xml version="1.0" standalone="no"?><!DOCTYPE svg PUBLIC "-//W3C//DTD SVG 1.1//EN" "http://www.w3.org/Graphics/SVG/1.1/DTD/svg11.dtd"><svg t="1508835582482" class="icon" style="" viewBox="0 0 1307 1024" version="1.1" xmlns="http://www.w3.org/2000/svg" p-id="3439" xmlns:xlink="http://www.w3.org/1999/xlink" width="382.91015625" height="300"><defs><style type="text/css"></style></defs><path d="M281.720505 971.039685c-56.057363-8.315414-91.899666-78.566329-67.096792-131.899677 20.358428-43.440872 89.31902-50.752702 131.612938-49.749117 14.050183 0.286738 25.949828-12.186383 25.949828-25.949828V25.949828c0-14.050183-11.899645-25.949828-25.949828-25.949828-91.18282 0-179.928363 15.053767-216.774251 111.971356-16.057352 42.437287-11.182799 91.326189-11.182799 135.914015v482.437404c0 39.713272-1.433692 79.713283 0 119.426555 3.58423 96.917589 76.702529 169.462411 173.476749 173.046641 133.333369 2.007169 598.279729 1.146954 769.749309 0 24.086028 0 31.971335-27.526889 18.351259-44.157718-45.304672-55.340517-48.745533-130.179246 0-184.659547 22.222228-24.802874-14.336921-61.505393-36.702519-36.702519-68.960592 76.989268-64.372777 179.211517 0 257.921216 6.164876-14.767029 12.186383-29.534058 18.35126-44.157718H344.372851c-52.329763 0-103.94268 3.440861-143.369213-40.430118-35.842303-39.856641-30.96775-90.465974-30.96775-139.641615V357.562819c0-57.347686-1.146954-114.83874 0-172.186426 0.716846-34.408611 7.168461-66.523315 30.96775-93.189989 38.996426-43.870979 92.186404-40.430118 145.233013-40.430118l-25.949827-25.949828v737.491236l25.949827-25.949828c-69.820807-1.720431-165.87818 20.931905-185.089655 98.924758-19.498213 78.996437 21.79212 171.899687 106.810065 184.516178 32.544812 5.161292 46.738364-44.874564 13.763444-49.749117z" fill="#7fbee0" p-id="3440"></path><path d="M432.544918 51.899655c157.992874 0 317.706178-7.455199 475.555682 0 64.229408 9.892476 126.308277 49.032271 129.319031 121.003617 0.716846 17.921152 0 36.129042 0 54.050193v540.071829l25.949828-25.949828H432.688287l25.949828 25.949828V26.093197c0-33.405027-51.756286-33.405027-51.756286 0v740.932097c0 14.050183 11.899645 25.949828 25.949827 25.949827h630.681172c14.050183 0 25.949828-11.899645 25.949827-25.949827V226.953465c0-95.053789-13.333337-175.914025-117.562755-209.175682-35.125457-11.182799-76.272422-15.770614-117.849494-17.491045-79.713283-0.286738-84.444467-0.286738-133.620107-0.286738H432.831656c-33.548396 0.143369-33.548396 51.899655-0.286738 51.899655z" fill="#7fbee0" p-id="3441"></path><path d="M603.727759 32.114704v391.254584c0 27.956997 33.691765 32.258073 48.315425 13.046599 33.548396-44.014349 67.096792-88.028697 100.788557-132.186415-13.620075 1.720431-27.096781 3.440861-40.716856 5.304661 34.265242 44.014349 68.387115 88.028697 102.652357 132.186415 14.336921 18.494629 44.157718 2.293907 44.157718-18.35126V32.114704c0-33.405027-51.756286-33.405027-51.756286 0v391.254584c14.767029-6.164876 29.534058-12.186383 44.157717-18.351259-34.265242-44.014349-68.387115-88.028697-102.652357-132.186415-11.326168-14.62366-31.827965-6.308245-40.716856 5.304661-33.548396 44.014349-67.096792 88.028697-100.788558 132.186415 16.057352 4.301076 32.114704 8.745522 48.315425 13.046598V32.114704c0-33.405027-51.756286-33.405027-51.756286 0zM432.544918 932.760105h568.88904c33.405027 0 33.405027-51.756286 0-51.756286H432.544918c-33.261658 0-33.261658 51.756286 0 51.756286z" fill="#7fbee0" p-id="3442"></path></svg>