<?xml version="1.0" standalone="no"?><!DOCTYPE svg PUBLIC "-//W3C//DTD SVG 1.1//EN" "http://www.w3.org/Graphics/SVG/1.1/DTD/svg11.dtd"><svg t="1508898214546" class="icon" style="" viewBox="0 0 1024 1024" version="1.1" xmlns="http://www.w3.org/2000/svg" p-id="3529" xmlns:xlink="http://www.w3.org/1999/xlink" width="300" height="300"><defs><style type="text/css"></style></defs><path d="M511.97952506 103.15356623C285.48291003 103.15356623 103.08298126 285.553495 103.08298126 512.05011001S285.48291003 920.94665381 511.97952506 920.94665381s408.89654379-182.39992878 408.89654379-408.8965438c3.20703195-226.49661502-182.39992878-408.89654379-408.89654379-408.89654378z m0 770.68980862C313.84509661 873.84337485 150.18626023 713.39156958 150.18626023 512.15032922 153.39329135 313.91568159 313.84509661 153.46387632 511.97952506 153.46387632S873.7727907 313.91568159 873.7727907 512.05011001c0 201.34145957-160.45180527 361.79326483-361.79326564 361.79326484z" fill="#6CC5DF" p-id="3530"></path><path d="M660.10430268 614.07380652l89.9973273-89.99732813H581.93290452c-9.42065579 0-17.13757599-7.71692019-17.137576-17.13757517 0-9.520875 7.71692019-17.13757599 17.137576-17.13757598h168.16872546L660.10430268 399.80399994c-6.71472235-6.71472235-6.71472235-17.53845447-1e-8-24.25317764 6.71472235-6.71472235 17.53845447-6.71472235 24.25317683 0L802.8172134 494.01055621c3.60791043 3.60791043 5.11120679 8.31823874 4.91076756 13.02856623 0.20043923 4.71032749-1.30285629 9.42065579-4.91076756 13.02856704L684.35747949 638.32698333c-6.71472235 6.71472235-17.53845447 6.71472235-24.25317681 0-6.71472235-6.71472235-6.71472235-17.53845447-1e-8-24.25317681M405.64637954 514.95648269c53.41712201 0 96.71205048-42.49316987 96.71205048-94.90809484 0-52.41492416-43.29492847-94.90809485-96.71205048-94.90809485s-96.71205048 42.49316987-96.71204964 94.90809485c0 52.41492416 43.29492847 94.90809485 96.71204964 94.90809484m2.40527417 8.91955647c-74.76392697 0-169.27114252 46.90283889-169.2711425 158.94850972v16.23559819h338.54228503v-16.23559819c0-114.05006571-94.50721554-158.94850973-169.27114253-158.94850972m0 0z" fill="#6CC5DF" p-id="3531"></path></svg>