<?xml version="1.0" standalone="no"?><!DOCTYPE svg PUBLIC "-//W3C//DTD SVG 1.1//EN" "http://www.w3.org/Graphics/SVG/1.1/DTD/svg11.dtd"><svg t="1508752743565" class="icon" style="" viewBox="0 0 1024 1024" version="1.1" xmlns="http://www.w3.org/2000/svg" p-id="8505" xmlns:xlink="http://www.w3.org/1999/xlink" width="300" height="300"><defs><style type="text/css"></style></defs><path d="M 989.637 411.306 H 35.2798 c -24.4383 -10.028 -23.017 -31.6237 0 -45.9945 C 58.2573 350.94 511.609 21.1219 511.609 21.1219 S 968.475 350.94 990.031 365.311 c 21.5562 14.3708 22.5827 35.9665 -0.394803 45.9945 Z M 511.609 183.978 a 69.051 69.051 0 1 0 0.03948 138.063 a 69.051 69.051 0 0 0 -0.03948 -138.063 Z M 138.481 844.917 v -355.401 H 96.869 v -39.5987 h 197.086 v 43.5073 h -38.5722 v 351.493 H 138.481 Z m 313.987 0 v -355.401 h -38.5722 v -37.1509 h 197.125 l -3.03998 38.6117 h -38.6117 v 353.941 h -116.901 Z m 317.619 0 v -355.401 h -41.6122 v -37.1509 h 197.086 v 38.6117 h -38.5722 v 353.941 h -116.901 Z m 195.743 42.1649 l 39.4013 115.559 H 19.6851 l 39.3618 -115.559 h 906.783 Z" fill="#e98f36" p-id="8506"></path></svg>