<?xml version="1.0" standalone="no"?><!DOCTYPE svg PUBLIC "-//W3C//DTD SVG 1.1//EN" "http://www.w3.org/Graphics/SVG/1.1/DTD/svg11.dtd"><svg t="1508835699696" class="icon" style="" viewBox="0 0 1024 1024" version="1.1" xmlns="http://www.w3.org/2000/svg" p-id="3320" xmlns:xlink="http://www.w3.org/1999/xlink" width="300" height="300"><defs><style type="text/css"></style></defs><path d="M317.011 432.193c4.25 10.703 11.893 19.061 22.142 24.097 0 0 3.675 2.085 7.394 2.89 0.479 0.156 0.882 0.439 1.179 0.812l-0.182-0.177c0.215 0.218 0.398 0.645 0.398 0.966 0.954 62.74 68.273 180.399 173.504 180.399 105.234 0 172.631-117.684 173.548-180.432 0.016-0.379 0.164-0.72 0.399-0.98 0.033 0.004 0.045-0.020 0.079-0.042 0.306-0.32 0.713-0.542 1.167-0.614 3.445-0.736 7.184-2.821 7.184-2.821 10.225-5.024 17.865-13.381 22.108-24.11 6.279-15.929 10.787-52.684 11.862-64.281 3.762-39.631 0.82-60.566-10.141-72.309l-4.837-5.181 0.127-7.044c0.133-8.892 0.382-17.302 0.603-25.051 1.675-58.637 3.167-109.279-57.825-141.674l-5.674-3.018-2.368-5.94c-11.874-29.406-52.142-62.995-150.896-63.203-79.565-0.171-129.962 35.014-146.097 52.15-45.3 48.113-43.248 114.555-41.377 173.187l0.567 20.706-4.798 5.242c-10.672 11.635-13.652 33.179-9.933 72.049 0.849 9.444 5.285 47.679 11.862 64.381zM333.997 320.090c1.056-3.74 5.024-11.306 11.271-10.956 9.299 0.671 15.945 23.087 18.462 28.987 1.519 3.562 4.81 1.871 4.527-0.476 0 0-5.759-85.617-1.111-104.597 5.217-21.067 8.666-30.255 25.184-46.672 13.854-15.821 39.575-21.443 57.365-12.564l32.203 16.094c20.571 12.222 53.851 12.145 74.377-0.205 0 0 14.047-7.178 31.402-15.988 17.392-8.879 43.431-3.188 58.249 12.633 0 0 16.554 16.022 26.757 46.706 9.028 25.278 2.026 104.597 2.026 104.597-0.284 2.358 2.939 4.048 4.493 0.476 2.526-5.898 9.169-28.316 18.439-28.987 6.287-0.351 10.25 7.214 11.302 10.956 1.755 6.282 3.163 18.859 0.668 45.054-2.179 22.734-6.668 48.126-10.011 56.629-2.047 5.26-5.932 8.809-11.541 10.387-15.836 4.558-19.365 14.842-20.099 20.491-0.138 1.041-0.332 2.743-0.544 4.185-0.303 2.404-0.479 5.194-0.489 8.025-2.044 50.736-62.846 148.367-145.49 148.367-82.64 0-143.411-97.634-145.542-150.951-0.112-2.953-0.372-5.727-0.779-8.451-0.59-4.74-1.977-11.606-3.819-18.281 2.951 11.461-0.587 1.177-16.445-3.382-5.565-1.578-9.42-5.126-11.552-10.387-3.358-8.503-7.813-33.897-9.988-56.629-2.436-26.197-1.088-38.771 0.684-45.056z" fill="#7fbee0" p-id="3321"></path><path d="M978.010 952.362c-12.421-74.342-45.855-248.986-90.979-274.814-31.901-20.533-111.599-16.293-196.576-70.709-0.317-0.187-0.876-0.627-0.876-0.627-8.59-6.542-22.5-7.985-21.584 4.212 4.313 30.565-30.451 135.83-76.137 234.132-11.53-39.862-33.126-95.732-37.45-105.556-0.844-1.863-0.444-4.666 0.886-6.251 6.239-7.441 22.481-27.583 25.054-38.028 3.386-13.586-3.694-22.83-14.478-31.457-4.49-3.562-11.741-5.024-16.864-2.47l-18.436 8.227c-5.108 2.573-13.415 2.573-18.58 0l-18.409-8.227c-5.138-2.566-12.384-1.099-16.839 2.47-10.831 8.637-17.908 17.871-14.564 31.457 2.623 10.446 18.907 30.606 25.133 38.042 1.305 1.578 1.703 4.4 0.882 6.279-4.24 9.671-25.522 65.689-37.034 105.51-45.695-98.308-80.479-203.569-76.179-234.128 0.916-12.207-12.972-10.765-21.548-4.217 0 0-0.567 0.448-0.849 0.631-85.027 54.425-164.721 50.173-196.607 70.706-43.903 25.122-77.738 197.002-90.988 274.817 99.671-0.005 824.89-0.005 913.022 0.003zM443.73 439.587c34.996 0 63.471-28.462 63.471-63.446 0-2.912-0.218-5.779-0.603-8.594 4.387-0.909 9.43-1.43 14.594-1.43 0.031 0 0.061 0 0.091 0 5.177 0 10.267 0.523 15.098 1.509-0.371 2.604-0.583 5.61-0.583 8.667 0 34.821 28.462 63.293 63.442 63.293 35.006 0 63.468-28.462 63.468-63.446 0-35.006-28.462-63.453-63.468-63.453-24.146 0-45.183 13.562-55.911 33.483-6.59-1.6-14.155-2.516-21.935-2.516-0.039 0-0.081 0-0.122 0-7.41 0-14.721 0.838-21.675 2.426-10.737-19.868-31.749-33.395-55.881-33.395-34.981 0-63.446 28.447-63.446 63.453 0.013 34.987 28.474 63.449 63.458 63.449zM599.235 335.15c22.614 0 41.001 18.393 41.001 40.993 0 22.603-18.386 40.982-41.001 40.982-22.587 0-40.99-18.393-40.99-40.982 0-22.596 18.404-40.993 40.99-40.993zM443.73 335.15c22.609 0 40.993 18.393 40.993 40.993 0 22.603-18.397 40.982-40.993 40.982-22.587 0-41.001-18.393-41.001-40.982 0-22.596 18.415-40.993 41.001-40.993z" fill="#7fbee0" p-id="3322"></path></svg>