<?xml version="1.0" standalone="no"?><!DOCTYPE svg PUBLIC "-//W3C//DTD SVG 1.1//EN" "http://www.w3.org/Graphics/SVG/1.1/DTD/svg11.dtd"><svg t="1508897243122" class="icon" style="" viewBox="0 0 1024 1024" version="1.1" xmlns="http://www.w3.org/2000/svg" p-id="3412" xmlns:xlink="http://www.w3.org/1999/xlink" width="300" height="300"><defs><style type="text/css"></style></defs><path d="M639.5 63.7H383.1v85.5h256.4V63.7zM468.6 619.2H554V362.8h-85.4v256.4z m343.1-282.4l60.7-60.7c-18.4-21.8-38.5-42.3-60.2-60.2l-60.7 60.7c-66.2-53-149.6-84.6-240.1-84.6-212.3 0-384.5 172.2-384.5 384.5S298.7 961 511.4 961c212.8 0 384.5-172.2 384.5-384.5-0.1-90.6-31.7-173.9-84.2-239.7zM511.3 875.5c-165.3 0-299.1-133.7-299.1-299.1s133.8-299 299.1-299 299.1 133.7 299.1 299.1-133.7 299-299.1 299z" fill="#B1CE4D" p-id="3413"></path></svg>