<?xml version="1.0" standalone="no"?><!DOCTYPE svg PUBLIC "-//W3C//DTD SVG 1.1//EN" "http://www.w3.org/Graphics/SVG/1.1/DTD/svg11.dtd"><svg t="1500011924352" class="icon" style="" viewBox="0 0 1024 1024" version="1.1" xmlns="http://www.w3.org/2000/svg" p-id="1947" xmlns:xlink="http://www.w3.org/1999/xlink" width="200" height="200"><defs><style type="text/css"></style></defs><path d="M511.67555999755865 558.2710827589036L372.54076850414276 558.2710827589036 372.54076850414276 604.576202750206 551.0291184186937 604.576202750206 551.0291184186937 604.364737391472 557.5468863248826 604.364737391472 557.5468863248826 419.18191564083105 511.67555999755865 419.18191564083105ZM511.67555999755865 268.00228905677795c-160.68977415561676 0-290.9524351358414 130.30828535556793-290.9524351358414 291.0024046897888 0 78.7346363067627 31.274423003196723 150.1664757728577 82.07463026046753 202.55339741706845l-68.76245141029358 68.76245141029358 34.15020704269409 34.15020704269409 71.06829285621643-71.06829285621643c48.25465679168701 35.563114285469055 107.88281857967374 56.58436417579651 172.4217563867569 56.58436417579651 64.00448083877562 0 123.18074405193329-20.66929042339325 171.22103869915009-55.69577515125275l72.7194607257843 72.7194607257843 34.15020704269409-34.15020704269409-70.24053633213043-70.24053633213043c51.40925645828247-52.481067180633545 83.10661017894745-124.34742450714111 83.10661017894745-203.61434519290924C802.6323403120041 398.3112986087799 672.3696793317795 268.00228905677795 511.67555999755865 268.00228905677795zM511.67555999755865 803.6208684444427c-134.47531163692474 0-243.49004924297333-109.26675796508789-243.49004924297333-244.04261112213135s109.01473760604857-244.04261112213135 243.49004924297333-244.04261112213135c134.47965681552884 0 243.49004924297333 109.26675796508789 243.49004924297333 244.04261112213135S646.1552168130875 803.6208684444427 511.67555999755865 803.6208684444427zM310.05782437324524 157.84114849567413c-35.65508723258972 0-71.57233357429504 11.374953389167787-101.95889174938202 34.87657606601715-72.89109528064728 56.375795602798476-86.27931475639345 161.1670196056366-29.90351915359497 234.05739068984985l263.96163403987885-204.15387153625485C409.2821503877639 180.11598241329193 359.9325085878372 157.84114849567413 310.05782437324524 157.84114849567413zM193.7786723375321 356.1283047199249c-4.051879048347473-15.008971095085144-5.161347985267639-30.81600666046142-3.131425380706787-46.701979637145996 4.079398512840272-31.927648186683655 20.347023010253906-60.355255007743835 45.807597041130066-80.04688024520874 21.307307481765747-16.479814052581787 46.75919115543365-25.190448760986328 73.60298037528992-25.190448760986328 18.05204451084137 0 36.163473129272454 4.111263155937195 52.37605869770049 11.889857053756712 2.5259971618652344 1.2123048305511475 4.996955394744873 2.504271268844605 7.412150502204893 3.87517511844635L193.7786723375321 356.1283047199249zM816.560086131096 194.18567073345184c-30.385833978652954-23.501622676849365-66.3038045167923-34.87657606601715-101.95889174938202-34.87657606601715-49.875408411026015 0-99.22505021095276 22.27555811405182-132.09922313690183 64.78009521961212l263.96163403987885 204.15387153625485C902.8394008874893 355.3519661426544 889.4511814117432 250.56074213981634 816.560086131096 194.18567073345184zM830.8803464174271 357.5969750881195l-176.0673612356186-136.174276471138c2.415195107460022-1.3709038496017456 4.886153340339661-2.6628702878952026 7.412150502204893-3.87517511844635 16.21258556842804-7.778593897819521 34.32401418685913-11.889857053756712 52.37605869770049-11.889857053756712 26.843789219856266 0 52.29494869709014 8.710634708404541 73.60298037528992 25.190448760986328 25.460574030876156 19.691625237464905 41.728922724723816 48.119232058525085 45.807597041130066 80.04688024520874C836.0416944026947 326.78096842765814 834.9329496622086 342.58800399303436 830.8803464174271 357.5969750881195z" fill="#ffffff" p-id="1948"></path></svg>